<svg width="32" height="32" viewBox="0 0 32 32" fill="none" xmlns="http://www.w3.org/2000/svg">
<rect width="32" height="32" fill="#37A58C"/>
<g clip-path="url(#clip0_100:4876)">
<path d="M18.3333 16.2105V12.7368L16.5 11L14.6667 12.7368V13.8947H11V22H22V16.2105H18.3333ZM13.4444 20.8421H12.2222V19.6842H13.4444V20.8421ZM13.4444 18.5263H12.2222V17.3684H13.4444V18.5263ZM13.4444 16.2105H12.2222V15.0526H13.4444V16.2105ZM17.1111 20.8421H15.8889V19.6842H17.1111V20.8421ZM17.1111 18.5263H15.8889V17.3684H17.1111V18.5263ZM17.1111 16.2105H15.8889V15.0526H17.1111V16.2105ZM17.1111 13.8947H15.8889V12.7368H17.1111V13.8947ZM20.7778 20.8421H19.5556V19.6842H20.7778V20.8421ZM20.7778 18.5263H19.5556V17.3684H20.7778V18.5263Z" fill="white"/>
</g>
<defs>
<clipPath id="clip0_100:4876">
<rect width="12" height="12" fill="white" transform="translate(10.5 10)"/>
</clipPath>
</defs>
</svg>
