<svg width="40" height="40" viewBox="0 0 40 40" fill="none" xmlns="http://www.w3.org/2000/svg">
<rect width="40" height="40" fill="black"/>
<path d="M23.9419 19.8716L15.8919 13.5841C15.8709 13.5675 15.8456 13.5572 15.819 13.5544C15.7924 13.5515 15.7655 13.5563 15.7414 13.568C15.7174 13.5798 15.6971 13.598 15.683 13.6208C15.6689 13.6435 15.6614 13.6698 15.6616 13.6966L15.6616 15.0769C15.6616 15.1644 15.7026 15.2483 15.7705 15.3019L22.1991 20.3216L15.7705 25.3412C15.7008 25.3948 15.6616 25.4787 15.6616 25.5662L15.6616 26.9466C15.6616 27.0662 15.7991 27.1323 15.8919 27.0591L23.9419 20.7716C24.0103 20.7182 24.0657 20.6499 24.1038 20.5719C24.1418 20.494 24.1616 20.4083 24.1616 20.3216C24.1616 20.2348 24.1418 20.1492 24.1038 20.0712C24.0657 19.9932 24.0103 19.9249 23.9419 19.8716Z" fill="white"/>
</svg>
