<svg width="10" height="14" viewBox="0 0 10 14" fill="none" xmlns="http://www.w3.org/2000/svg">
<path d="M9.06411 6.5345L0.738253 0.0315415C0.716497 0.0144137 0.690351 0.00376947 0.662818 0.000831212C0.635286 -0.00210704 0.607483 0.00277984 0.582602 0.0149307C0.557722 0.0270816 0.536774 0.0460037 0.522163 0.0695238C0.507551 0.0930439 0.49987 0.120208 0.500002 0.147897L0.500002 1.57556C0.500002 1.66605 0.542481 1.75286 0.612663 1.80827L7.26153 6.99992L0.612663 12.1916C0.540634 12.247 0.500002 12.3338 0.500002 12.4243L0.500002 13.8519C0.500002 13.9757 0.642213 14.044 0.738253 13.9683L9.06411 7.46534C9.13488 7.41014 9.19212 7.33953 9.23149 7.25889C9.27087 7.17824 9.29134 7.08967 9.29134 6.99992C9.29134 6.91018 9.27087 6.82161 9.23149 6.74096C9.19212 6.66031 9.13488 6.5897 9.06411 6.5345Z" fill="white"/>
</svg>
