<svg width="40" height="40" viewBox="0 0 40 40" fill="none" xmlns="http://www.w3.org/2000/svg">
<rect width="40" height="40" fill="black"/>
<path d="M20.1285 24.1187L26.416 16.0687C26.4326 16.0477 26.4429 16.0224 26.4457 15.9958C26.4486 15.9692 26.4438 15.9423 26.4321 15.9182C26.4203 15.8942 26.4021 15.8739 26.3793 15.8598C26.3566 15.8457 26.3303 15.8383 26.3035 15.8384L24.9232 15.8384C24.8357 15.8384 24.7518 15.8795 24.6982 15.9473L19.6785 22.3759L14.6589 15.9473C14.6053 15.8777 14.5214 15.8384 14.4339 15.8384L13.0535 15.8384C12.9339 15.8384 12.8678 15.9759 12.941 16.0687L19.2285 24.1187C19.2819 24.1872 19.3502 24.2425 19.4282 24.2806C19.5061 24.3186 19.5918 24.3384 19.6785 24.3384C19.7653 24.3384 19.8509 24.3186 19.9289 24.2806C20.0069 24.2425 20.0752 24.1872 20.1285 24.1187Z" fill="white"/>
</svg>
