<svg width="32" height="32" viewBox="0 0 32 32" fill="none" xmlns="http://www.w3.org/2000/svg">
<path d="M16.2262 16.7313L16.2297 16.7148C16.2977 16.4348 16.3832 16.0855 16.3164 15.7691C16.2719 15.5195 16.0879 15.4223 15.9309 15.4152C15.7457 15.407 15.5805 15.5125 15.5395 15.666C15.4621 15.9473 15.5312 16.3316 15.6578 16.8215C15.4984 17.2012 15.2441 17.7531 15.0578 18.0812C14.7109 18.2605 14.2457 18.5371 14.1766 18.8863C14.1625 18.9508 14.1789 19.0328 14.2176 19.1066C14.2609 19.1887 14.3301 19.252 14.4109 19.2824C14.4461 19.2953 14.4883 19.3059 14.5375 19.3059C14.7438 19.3059 15.0777 19.1395 15.523 18.3754C15.591 18.3531 15.6613 18.3297 15.7293 18.3062C16.048 18.1984 16.3785 18.0859 16.6773 18.0355C17.0078 18.2125 17.384 18.3262 17.6395 18.3262C17.8926 18.3262 17.9922 18.1762 18.0297 18.0859C18.0953 17.9277 18.0637 17.7285 17.957 17.6219C17.8023 17.4695 17.4262 17.4297 16.8402 17.5023C16.552 17.3266 16.3633 17.0875 16.2262 16.7313ZM14.9406 18.5113C14.7777 18.748 14.6547 18.8664 14.5879 18.918C14.6664 18.7738 14.8199 18.6215 14.9406 18.5113ZM15.9672 15.7516C16.0281 15.8559 16.0199 16.1711 15.973 16.3305C15.9156 16.0973 15.9074 15.7668 15.9414 15.7281C15.9508 15.7293 15.959 15.7363 15.9672 15.7516ZM15.9484 17.1637C16.0738 17.3805 16.232 17.5668 16.4066 17.7051C16.1535 17.7625 15.9227 17.8574 15.7164 17.9418C15.6672 17.9617 15.6191 17.9816 15.5723 18.0004C15.7281 17.718 15.8582 17.398 15.9484 17.1637ZM17.7719 17.9312C17.773 17.9336 17.7742 17.9371 17.7672 17.9418H17.7648L17.7625 17.9453C17.7531 17.9512 17.657 18.0074 17.2434 17.8445C17.7191 17.8223 17.7707 17.9301 17.7719 17.9312ZM20.0148 13.382L17.493 10.8602C17.4227 10.7898 17.3277 10.75 17.2281 10.75H12.25C12.0426 10.75 11.875 10.9176 11.875 11.125V20.875C11.875 21.0824 12.0426 21.25 12.25 21.25H19.75C19.9574 21.25 20.125 21.0824 20.125 20.875V13.648C20.125 13.5484 20.0852 13.4523 20.0148 13.382ZM19.2602 13.8203H17.0547V11.6148L19.2602 13.8203ZM19.2812 20.4062H12.7188V11.5938H16.2578V14.125C16.2578 14.2555 16.3097 14.3807 16.402 14.473C16.4943 14.5653 16.6195 14.6172 16.75 14.6172H19.2812V20.4062Z" fill="black"/>
<path d="M0 0V-1H-1V0H0ZM32 0H33V-1H32V0ZM32 32V33H33V32H32ZM0 32H-1V33H0V32ZM0 1H32V-1H0V1ZM31 0V32H33V0H31ZM32 31H0V33H32V31ZM1 32V0H-1V32H1Z" fill="black"/>
</svg>
