<svg width="40" height="40" viewBox="0 0 40 40" fill="none" xmlns="http://www.w3.org/2000/svg">
<rect width="40" height="40" fill="black"/>
<path d="M26.2125 25.3516L22.1547 21.2937C22.7844 20.4797 23.125 19.4844 23.125 18.4375C23.125 17.1844 22.6359 16.0094 21.7516 15.1234C20.8672 14.2375 19.6891 13.75 18.4375 13.75C17.1859 13.75 16.0078 14.2391 15.1234 15.1234C14.2375 16.0078 13.75 17.1844 13.75 18.4375C13.75 19.6891 14.2391 20.8672 15.1234 21.7516C16.0078 22.6375 17.1844 23.125 18.4375 23.125C19.4844 23.125 20.4781 22.7844 21.2922 22.1562L25.35 26.2125C25.3619 26.2244 25.376 26.2338 25.3916 26.2403C25.4071 26.2467 25.4238 26.2501 25.4406 26.2501C25.4575 26.2501 25.4741 26.2467 25.4897 26.2403C25.5052 26.2338 25.5194 26.2244 25.5312 26.2125L26.2125 25.5328C26.2244 25.5209 26.2338 25.5068 26.2403 25.4912C26.2467 25.4757 26.2501 25.459 26.2501 25.4422C26.2501 25.4254 26.2467 25.4087 26.2403 25.3931C26.2338 25.3776 26.2244 25.3635 26.2125 25.3516ZM20.9125 20.9125C20.25 21.5734 19.3719 21.9375 18.4375 21.9375C17.5031 21.9375 16.625 21.5734 15.9625 20.9125C15.3016 20.25 14.9375 19.3719 14.9375 18.4375C14.9375 17.5031 15.3016 16.6234 15.9625 15.9625C16.625 15.3016 17.5031 14.9375 18.4375 14.9375C19.3719 14.9375 20.2516 15.3 20.9125 15.9625C21.5734 16.625 21.9375 17.5031 21.9375 18.4375C21.9375 19.3719 21.5734 20.2516 20.9125 20.9125Z" fill="white"/>
</svg>
