<svg width="16" height="16" viewBox="0 0 16 16" fill="none" xmlns="http://www.w3.org/2000/svg">
<path d="M14.579 9.77952L13.5555 8.90445C13.604 8.60756 13.629 8.30441 13.629 8.00127C13.629 7.69812 13.604 7.39497 13.5555 7.09808L14.579 6.22302C14.6562 6.15693 14.7115 6.06891 14.7374 5.97065C14.7634 5.8724 14.7588 5.76858 14.7244 5.67298L14.7103 5.63235C14.4285 4.84484 14.0066 4.1148 13.4649 3.47752L13.4368 3.4447C13.3711 3.36743 13.2835 3.31189 13.1856 3.28539C13.0877 3.25889 12.984 3.26268 12.8883 3.29625L11.6179 3.74785C11.1491 3.36345 10.6256 3.0603 10.06 2.84778L9.81464 1.51957C9.79613 1.41963 9.74765 1.32768 9.67564 1.25595C9.60363 1.18422 9.5115 1.1361 9.41149 1.11798L9.3693 1.11016C8.55518 0.963279 7.69887 0.963279 6.88475 1.11016L6.84256 1.11798C6.74255 1.1361 6.65042 1.18422 6.57841 1.25595C6.5064 1.32768 6.45792 1.41963 6.43941 1.51957L6.19252 2.85403C5.63137 3.06659 5.1088 3.36958 4.64553 3.75097L3.36576 3.29625C3.27007 3.26241 3.16635 3.25849 3.06839 3.285C2.97042 3.31152 2.88284 3.36722 2.81728 3.4447L2.78916 3.47752C2.2481 4.11525 1.82624 4.84517 1.54376 5.63235L1.52969 5.67298C1.45938 5.86831 1.51719 6.08707 1.67502 6.22302L2.71102 7.10746C2.66258 7.40123 2.63914 7.70125 2.63914 7.9997C2.63914 8.29973 2.66258 8.59975 2.71102 8.89195L1.67502 9.77639C1.59782 9.84248 1.54256 9.9305 1.5166 10.0288C1.49065 10.127 1.49521 10.2308 1.52969 10.3264L1.54376 10.3671C1.82659 11.1546 2.24537 11.8812 2.78916 12.5219L2.81728 12.5547C2.883 12.632 2.97058 12.6875 3.06849 12.714C3.1664 12.7405 3.27004 12.7367 3.36576 12.7032L4.64553 12.2484C5.11119 12.6313 5.63154 12.9344 6.19252 13.1454L6.43941 14.4798C6.45792 14.5798 6.5064 14.6717 6.57841 14.7435C6.65042 14.8152 6.74255 14.8633 6.84256 14.8814L6.88475 14.8892C7.70635 15.0369 8.5477 15.0369 9.3693 14.8892L9.41149 14.8814C9.5115 14.8633 9.60363 14.8152 9.67564 14.7435C9.74765 14.6717 9.79613 14.5798 9.81464 14.4798L10.06 13.1516C10.6254 12.9397 11.1518 12.6355 11.6179 12.2516L12.8883 12.7032C12.984 12.737 13.0877 12.7409 13.1857 12.7144C13.2836 12.6879 13.3712 12.6322 13.4368 12.5547L13.4649 12.5219C14.0087 11.8797 14.4275 11.1546 14.7103 10.3671L14.7244 10.3264C14.7947 10.1342 14.7369 9.91546 14.579 9.77952ZM12.4461 7.28247C12.4851 7.51842 12.5055 7.76063 12.5055 8.00283C12.5055 8.24503 12.4851 8.48724 12.4461 8.72319L12.3429 9.3498L13.5102 10.3483C13.3333 10.756 13.1099 11.1419 12.8445 11.4984L11.3944 10.9843L10.9038 11.3874C10.5303 11.6937 10.1147 11.9344 9.66463 12.1031L9.06928 12.3266L8.78957 13.8423C8.34824 13.8923 7.90268 13.8923 7.46135 13.8423L7.18165 12.3234L6.59098 12.0969C6.14564 11.9281 5.73155 11.6875 5.36121 11.3828L4.87055 10.978L3.41107 11.4968C3.14543 11.139 2.92354 10.753 2.7454 10.3467L3.92517 9.33886L3.8236 8.71382C3.7861 8.48099 3.76579 8.24035 3.76579 8.00283C3.76579 7.76375 3.78454 7.52467 3.8236 7.29184L3.92517 6.6668L2.7454 5.65892C2.92198 5.25108 3.14543 4.86667 3.41107 4.50884L4.87055 5.02762L5.36121 4.62291C5.73155 4.3182 6.14564 4.07756 6.59098 3.9088L7.18321 3.68534L7.46292 2.16649C7.90201 2.11648 8.35048 2.11648 8.79114 2.16649L9.07084 3.68222L9.6662 3.90567C10.1147 4.07443 10.5319 4.31507 10.9053 4.62135L11.396 5.0245L12.8461 4.5104C13.1117 4.86824 13.3336 5.2542 13.5118 5.66048L12.3445 6.65899L12.4461 7.28247ZM8.12859 5.09638C6.60973 5.09638 5.3784 6.32771 5.3784 7.84657C5.3784 9.36542 6.60973 10.5968 8.12859 10.5968C9.64744 10.5968 10.8788 9.36542 10.8788 7.84657C10.8788 6.32771 9.64744 5.09638 8.12859 5.09638ZM9.36617 9.08416C9.20385 9.24694 9.01095 9.37603 8.79856 9.46399C8.58616 9.55195 8.35847 9.59705 8.12859 9.59669C7.66137 9.59669 7.22228 9.41387 6.891 9.08416C6.72822 8.92183 6.59913 8.72893 6.51117 8.51654C6.42321 8.30414 6.37811 8.07645 6.37847 7.84657C6.37847 7.37935 6.56129 6.94026 6.891 6.60898C7.22228 6.27771 7.66137 6.09645 8.12859 6.09645C8.59581 6.09645 9.0349 6.27771 9.36617 6.60898C9.52896 6.7713 9.65805 6.96421 9.74601 7.1766C9.83397 7.38899 9.87907 7.61668 9.87871 7.84657C9.87871 8.31379 9.69589 8.75288 9.36617 9.08416Z" fill="black"/>
</svg>
